<?xml version="1.0" encoding="UTF-8"?>
<svg width="18" height="18" viewBox="0 0 24 24" xmlns="http://www.w3.org/2000/svg">
  <path fill="#EA4335" d="M12 5.04c2.17 0 4.1.89 5.5 2.3l3.5-3.5C18.73 1.56 15.55 0 12 0 7.31 0 3.23 2.7 1.24 6.67l4.07 3.16C6.42 7.1 9 5.04 12 5.04z"/>
  <path fill="#4285F4" d="M23.54 12.27c0-.96-.08-1.9-.25-2.8H12v5.22h6.44c-.26 1.56-1.1 2.9-2.37 3.78v3.13h3.84C22.12 19.39 23.54 16.13 23.54 12.27z"/>
  <path fill="#FBBC05" d="M5.3 14.67l-4.07 3.16C2.24 21.8 6.8 24 12 24c3.2 0 5.9-1.06 7.86-2.87l-3.84-3.13c-1.08.72-2.46 1.16-4.02 1.16-3.1 0-5.73-2.1-6.67-4.92H5.3v.43z"/>
  <path fill="#34A853" d="M12 24c5.04 0 9.27-1.62 12-4.87l-5.04-4.02c-1.4.94-3.19 1.5-5.04 1.5-3.87 0-7.15-2.61-8.33-6.12H.06v4.13C3.05 21.29 7.2 24 12 24z"/>
</svg>